<?xml version="1.0" encoding="UTF-8"?>
<svg width="500" height="400" viewBox="0 0 500 400" fill="none" xmlns="http://www.w3.org/2000/svg">
    <!-- Фон -->
    <rect width="500" height="400" fill="#F8F9FA"/>
    
    <!-- Круги -->
    <circle cx="250" cy="200" r="150" fill="#6C63FF" opacity="0.1"/>
    <circle cx="250" cy="200" r="100" fill="#4CAF50" opacity="0.1"/>
    
    <!-- Иконки -->
    <g transform="translate(150, 100)">
        <rect x="0" y="0" width="60" height="60" rx="10" fill="#6C63FF"/>
        <path d="M20 30L40 30M20 20L40 20M20 40L40 40" stroke="white" stroke-width="4"/>
    </g>
    
    <g transform="translate(290, 100)">
        <rect x="0" y="0" width="60" height="60" rx="10" fill="#4CAF50"/>
        <path d="M30 20L30 40M20 30L40 30" stroke="white" stroke-width="4"/>
    </g>
    
    <g transform="translate(150, 240)">
        <rect x="0" y="0" width="60" height="60" rx="10" fill="#6C63FF"/>
        <path d="M20 30L40 30M20 20L40 20M20 40L40 40" stroke="white" stroke-width="4"/>
    </g>
    
    <g transform="translate(290, 240)">
        <rect x="0" y="0" width="60" height="60" rx="10" fill="#4CAF50"/>
        <path d="M30 20L30 40M20 30L40 30" stroke="white" stroke-width="4"/>
    </g>
    
    <!-- Соединительные линии -->
    <path d="M210 130L290 130" stroke="#6C63FF" stroke-width="2" stroke-dasharray="5 5"/>
    <path d="M210 270L290 270" stroke="#4CAF50" stroke-width="2" stroke-dasharray="5 5"/>
    <path d="M180 160L180 240" stroke="#6C63FF" stroke-width="2" stroke-dasharray="5 5"/>
    <path d="M320 160L320 240" stroke="#4CAF50" stroke-width="2" stroke-dasharray="5 5"/>
</svg> 